<mxfile host="app.diagrams.net" agent="Mozilla/5.0 (X11; Linux x86_64) AppleWebKit/537.36 (KHTML, like Gecko) Chrome/129.0.0.0 Safari/537.36" version="24.7.17" pages="2">
  <diagram name="Page-1" id="FoUXitPazerdqQbCk7Sm">
    <mxGraphModel dx="2801" dy="1799" grid="1" gridSize="10" guides="1" tooltips="1" connect="1" arrows="1" fold="1" page="1" pageScale="1" pageWidth="827" pageHeight="1169" math="0" shadow="0">
      <root>
        <mxCell id="0" />
        <mxCell id="1" parent="0" />
        <mxCell id="hOWvKVxqhoTVJDO-nxhJ-51" style="edgeStyle=orthogonalEdgeStyle;rounded=0;orthogonalLoop=1;jettySize=auto;html=1;entryX=1;entryY=0.5;entryDx=0;entryDy=0;" edge="1" parent="1" source="hOWvKVxqhoTVJDO-nxhJ-53" target="hOWvKVxqhoTVJDO-nxhJ-77">
          <mxGeometry relative="1" as="geometry" />
        </mxCell>
        <mxCell id="hOWvKVxqhoTVJDO-nxhJ-52" style="edgeStyle=orthogonalEdgeStyle;rounded=0;orthogonalLoop=1;jettySize=auto;html=1;" edge="1" parent="1" source="hOWvKVxqhoTVJDO-nxhJ-53" target="hOWvKVxqhoTVJDO-nxhJ-82">
          <mxGeometry relative="1" as="geometry" />
        </mxCell>
        <mxCell id="hOWvKVxqhoTVJDO-nxhJ-53" value="Club" style="rounded=0;whiteSpace=wrap;html=1;fillColor=#f8cecc;strokeColor=#b85450;" vertex="1" parent="1">
          <mxGeometry x="-420" y="860" width="120" height="60" as="geometry" />
        </mxCell>
        <mxCell id="hOWvKVxqhoTVJDO-nxhJ-54" style="edgeStyle=orthogonalEdgeStyle;rounded=0;orthogonalLoop=1;jettySize=auto;html=1;entryX=0.5;entryY=0;entryDx=0;entryDy=0;" edge="1" parent="1" source="hOWvKVxqhoTVJDO-nxhJ-55" target="hOWvKVxqhoTVJDO-nxhJ-53">
          <mxGeometry relative="1" as="geometry" />
        </mxCell>
        <mxCell id="hOWvKVxqhoTVJDO-nxhJ-55" value="&lt;u&gt;name&lt;/u&gt;" style="ellipse;whiteSpace=wrap;html=1;fillColor=#a0522d;fontColor=#ffffff;strokeColor=#6D1F00;" vertex="1" parent="1">
          <mxGeometry x="-210" y="710" width="90" height="50" as="geometry" />
        </mxCell>
        <mxCell id="hOWvKVxqhoTVJDO-nxhJ-56" style="edgeStyle=orthogonalEdgeStyle;rounded=0;orthogonalLoop=1;jettySize=auto;html=1;entryX=1;entryY=0.5;entryDx=0;entryDy=0;" edge="1" parent="1" source="hOWvKVxqhoTVJDO-nxhJ-57" target="hOWvKVxqhoTVJDO-nxhJ-59">
          <mxGeometry relative="1" as="geometry" />
        </mxCell>
        <mxCell id="hOWvKVxqhoTVJDO-nxhJ-57" value="City" style="rounded=0;whiteSpace=wrap;html=1;fillColor=#f8cecc;strokeColor=#b85450;" vertex="1" parent="1">
          <mxGeometry x="100" y="960" width="120" height="60" as="geometry" />
        </mxCell>
        <mxCell id="hOWvKVxqhoTVJDO-nxhJ-58" style="edgeStyle=orthogonalEdgeStyle;rounded=0;orthogonalLoop=1;jettySize=auto;html=1;" edge="1" parent="1" source="hOWvKVxqhoTVJDO-nxhJ-59" target="hOWvKVxqhoTVJDO-nxhJ-53">
          <mxGeometry relative="1" as="geometry" />
        </mxCell>
        <mxCell id="hOWvKVxqhoTVJDO-nxhJ-59" value="Based" style="rhombus;whiteSpace=wrap;html=1;fillColor=#6d8764;fontColor=#ffffff;strokeColor=#3A5431;" vertex="1" parent="1">
          <mxGeometry x="-150" y="890" width="110" height="80" as="geometry" />
        </mxCell>
        <mxCell id="hOWvKVxqhoTVJDO-nxhJ-60" style="edgeStyle=orthogonalEdgeStyle;rounded=0;orthogonalLoop=1;jettySize=auto;html=1;" edge="1" parent="1" source="hOWvKVxqhoTVJDO-nxhJ-61" target="hOWvKVxqhoTVJDO-nxhJ-57">
          <mxGeometry relative="1" as="geometry" />
        </mxCell>
        <mxCell id="hOWvKVxqhoTVJDO-nxhJ-61" value="&lt;u&gt;name&lt;/u&gt;" style="ellipse;whiteSpace=wrap;html=1;fillColor=#a0522d;fontColor=#ffffff;strokeColor=#6D1F00;" vertex="1" parent="1">
          <mxGeometry x="200" y="880" width="80" height="40" as="geometry" />
        </mxCell>
        <mxCell id="hOWvKVxqhoTVJDO-nxhJ-62" style="edgeStyle=orthogonalEdgeStyle;rounded=0;orthogonalLoop=1;jettySize=auto;html=1;entryX=0.25;entryY=0;entryDx=0;entryDy=0;" edge="1" parent="1" source="hOWvKVxqhoTVJDO-nxhJ-63" target="hOWvKVxqhoTVJDO-nxhJ-57">
          <mxGeometry relative="1" as="geometry" />
        </mxCell>
        <mxCell id="hOWvKVxqhoTVJDO-nxhJ-63" value="population" style="ellipse;whiteSpace=wrap;html=1;fillColor=#a0522d;fontColor=#ffffff;strokeColor=#6D1F00;" vertex="1" parent="1">
          <mxGeometry x="130" y="730" width="90" height="50" as="geometry" />
        </mxCell>
        <mxCell id="hOWvKVxqhoTVJDO-nxhJ-64" value="result" style="ellipse;whiteSpace=wrap;html=1;fillColor=#a0522d;fontColor=#ffffff;strokeColor=#6D1F00;" vertex="1" parent="1">
          <mxGeometry x="-174" y="1320" width="90" height="60" as="geometry" />
        </mxCell>
        <mxCell id="hOWvKVxqhoTVJDO-nxhJ-65" value="date" style="ellipse;whiteSpace=wrap;html=1;fillColor=#a0522d;fontColor=#ffffff;strokeColor=#6D1F00;" vertex="1" parent="1">
          <mxGeometry x="-356" y="1290" width="90" height="60" as="geometry" />
        </mxCell>
        <mxCell id="hOWvKVxqhoTVJDO-nxhJ-66" style="edgeStyle=orthogonalEdgeStyle;rounded=0;orthogonalLoop=1;jettySize=auto;html=1;" edge="1" parent="1" source="hOWvKVxqhoTVJDO-nxhJ-67" target="hOWvKVxqhoTVJDO-nxhJ-77">
          <mxGeometry relative="1" as="geometry" />
        </mxCell>
        <mxCell id="hOWvKVxqhoTVJDO-nxhJ-92" style="edgeStyle=orthogonalEdgeStyle;rounded=0;orthogonalLoop=1;jettySize=auto;html=1;entryX=0.5;entryY=1;entryDx=0;entryDy=0;" edge="1" parent="1" source="hOWvKVxqhoTVJDO-nxhJ-67" target="hOWvKVxqhoTVJDO-nxhJ-91">
          <mxGeometry relative="1" as="geometry">
            <Array as="points">
              <mxPoint x="-860" y="770" />
              <mxPoint x="-980" y="770" />
            </Array>
          </mxGeometry>
        </mxCell>
        <mxCell id="hOWvKVxqhoTVJDO-nxhJ-67" value="player" style="rounded=0;whiteSpace=wrap;html=1;fillColor=#f8cecc;strokeColor=#b85450;" vertex="1" parent="1">
          <mxGeometry x="-920" y="825" width="120" height="60" as="geometry" />
        </mxCell>
        <mxCell id="hOWvKVxqhoTVJDO-nxhJ-68" style="edgeStyle=orthogonalEdgeStyle;rounded=0;orthogonalLoop=1;jettySize=auto;html=1;" edge="1" parent="1" source="hOWvKVxqhoTVJDO-nxhJ-69" target="hOWvKVxqhoTVJDO-nxhJ-67">
          <mxGeometry relative="1" as="geometry" />
        </mxCell>
        <mxCell id="hOWvKVxqhoTVJDO-nxhJ-69" value="&lt;u&gt;name&lt;/u&gt;" style="ellipse;whiteSpace=wrap;html=1;fillColor=#a0522d;fontColor=#ffffff;strokeColor=#6D1F00;" vertex="1" parent="1">
          <mxGeometry x="-1230" y="815" width="89" height="60" as="geometry" />
        </mxCell>
        <mxCell id="hOWvKVxqhoTVJDO-nxhJ-70" style="edgeStyle=orthogonalEdgeStyle;rounded=0;orthogonalLoop=1;jettySize=auto;html=1;entryX=0.75;entryY=1;entryDx=0;entryDy=0;" edge="1" parent="1" source="hOWvKVxqhoTVJDO-nxhJ-71" target="hOWvKVxqhoTVJDO-nxhJ-67">
          <mxGeometry relative="1" as="geometry" />
        </mxCell>
        <mxCell id="hOWvKVxqhoTVJDO-nxhJ-71" value="birth_date" style="ellipse;whiteSpace=wrap;html=1;fillColor=#a0522d;fontColor=#ffffff;strokeColor=#6D1F00;" vertex="1" parent="1">
          <mxGeometry x="-1200" y="985" width="99" height="60" as="geometry" />
        </mxCell>
        <mxCell id="hOWvKVxqhoTVJDO-nxhJ-72" style="edgeStyle=orthogonalEdgeStyle;rounded=0;orthogonalLoop=1;jettySize=auto;html=1;entryX=0.5;entryY=1;entryDx=0;entryDy=0;" edge="1" parent="1" source="hOWvKVxqhoTVJDO-nxhJ-73" target="hOWvKVxqhoTVJDO-nxhJ-67">
          <mxGeometry relative="1" as="geometry" />
        </mxCell>
        <mxCell id="hOWvKVxqhoTVJDO-nxhJ-73" value="birth_country" style="ellipse;whiteSpace=wrap;html=1;fillColor=#a0522d;fontColor=#ffffff;strokeColor=#6D1F00;" vertex="1" parent="1">
          <mxGeometry x="-1203" y="905" width="100" height="60" as="geometry" />
        </mxCell>
        <mxCell id="hOWvKVxqhoTVJDO-nxhJ-76" style="edgeStyle=orthogonalEdgeStyle;rounded=0;orthogonalLoop=1;jettySize=auto;html=1;entryX=0.5;entryY=1;entryDx=0;entryDy=0;" edge="1" parent="1" source="hOWvKVxqhoTVJDO-nxhJ-77" target="hOWvKVxqhoTVJDO-nxhJ-78">
          <mxGeometry relative="1" as="geometry" />
        </mxCell>
        <mxCell id="hOWvKVxqhoTVJDO-nxhJ-77" value="plays_in" style="rhombus;whiteSpace=wrap;html=1;fillColor=#6d8764;fontColor=#ffffff;strokeColor=#3A5431;" vertex="1" parent="1">
          <mxGeometry x="-630" y="870" width="110" height="80" as="geometry" />
        </mxCell>
        <mxCell id="hOWvKVxqhoTVJDO-nxhJ-78" value="start_date" style="ellipse;whiteSpace=wrap;html=1;fillColor=#a0522d;fontColor=#ffffff;strokeColor=#6D1F00;" vertex="1" parent="1">
          <mxGeometry x="-680" y="750" width="100" height="60" as="geometry" />
        </mxCell>
        <mxCell id="hOWvKVxqhoTVJDO-nxhJ-79" style="edgeStyle=orthogonalEdgeStyle;rounded=0;orthogonalLoop=1;jettySize=auto;html=1;" edge="1" parent="1" source="hOWvKVxqhoTVJDO-nxhJ-82" target="hOWvKVxqhoTVJDO-nxhJ-65">
          <mxGeometry relative="1" as="geometry" />
        </mxCell>
        <mxCell id="hOWvKVxqhoTVJDO-nxhJ-80" style="edgeStyle=orthogonalEdgeStyle;rounded=0;orthogonalLoop=1;jettySize=auto;html=1;entryX=0;entryY=0.5;entryDx=0;entryDy=0;" edge="1" parent="1" source="hOWvKVxqhoTVJDO-nxhJ-82" target="hOWvKVxqhoTVJDO-nxhJ-64">
          <mxGeometry relative="1" as="geometry" />
        </mxCell>
        <mxCell id="hOWvKVxqhoTVJDO-nxhJ-81" style="edgeStyle=orthogonalEdgeStyle;rounded=0;orthogonalLoop=1;jettySize=auto;html=1;entryX=0.5;entryY=1;entryDx=0;entryDy=0;" edge="1" parent="1" source="hOWvKVxqhoTVJDO-nxhJ-82" target="hOWvKVxqhoTVJDO-nxhJ-57">
          <mxGeometry relative="1" as="geometry" />
        </mxCell>
        <mxCell id="hOWvKVxqhoTVJDO-nxhJ-82" value="was_in" style="rhombus;whiteSpace=wrap;html=1;fillColor=#6d8764;fontColor=#ffffff;strokeColor=#3A5431;" vertex="1" parent="1">
          <mxGeometry x="-300" y="1090" width="126" height="65" as="geometry" />
        </mxCell>
        <mxCell id="hOWvKVxqhoTVJDO-nxhJ-83" style="edgeStyle=orthogonalEdgeStyle;rounded=0;orthogonalLoop=1;jettySize=auto;html=1;entryX=0.071;entryY=0.984;entryDx=0;entryDy=0;entryPerimeter=0;" edge="1" parent="1" source="hOWvKVxqhoTVJDO-nxhJ-82" target="hOWvKVxqhoTVJDO-nxhJ-53">
          <mxGeometry relative="1" as="geometry">
            <Array as="points">
              <mxPoint x="-412" y="1123" />
            </Array>
          </mxGeometry>
        </mxCell>
        <mxCell id="hOWvKVxqhoTVJDO-nxhJ-84" value="1" style="text;html=1;align=center;verticalAlign=middle;resizable=0;points=[];autosize=1;strokeColor=none;fillColor=none;" vertex="1" parent="1">
          <mxGeometry x="-356" y="935" width="30" height="30" as="geometry" />
        </mxCell>
        <mxCell id="hOWvKVxqhoTVJDO-nxhJ-85" value="1" style="text;html=1;align=center;verticalAlign=middle;resizable=0;points=[];autosize=1;strokeColor=none;fillColor=none;" vertex="1" parent="1">
          <mxGeometry x="-440" y="935" width="30" height="30" as="geometry" />
        </mxCell>
        <mxCell id="hOWvKVxqhoTVJDO-nxhJ-86" value="N" style="text;html=1;align=center;verticalAlign=middle;resizable=0;points=[];autosize=1;strokeColor=none;fillColor=none;" vertex="1" parent="1">
          <mxGeometry x="-805" y="825" width="30" height="30" as="geometry" />
        </mxCell>
        <mxCell id="hOWvKVxqhoTVJDO-nxhJ-87" value="1" style="text;html=1;align=center;verticalAlign=middle;resizable=0;points=[];autosize=1;strokeColor=none;fillColor=none;" vertex="1" parent="1">
          <mxGeometry x="-455" y="858" width="30" height="30" as="geometry" />
        </mxCell>
        <mxCell id="hOWvKVxqhoTVJDO-nxhJ-88" value="N" style="text;html=1;align=center;verticalAlign=middle;resizable=0;points=[];autosize=1;strokeColor=none;fillColor=none;" vertex="1" parent="1">
          <mxGeometry x="-285" y="858" width="30" height="30" as="geometry" />
        </mxCell>
        <mxCell id="hOWvKVxqhoTVJDO-nxhJ-89" value="1" style="text;html=1;align=center;verticalAlign=middle;resizable=0;points=[];autosize=1;strokeColor=none;fillColor=none;" vertex="1" parent="1">
          <mxGeometry x="65" y="958" width="30" height="30" as="geometry" />
        </mxCell>
        <mxCell id="hOWvKVxqhoTVJDO-nxhJ-90" value="1" style="text;html=1;align=center;verticalAlign=middle;resizable=0;points=[];autosize=1;strokeColor=none;fillColor=none;" vertex="1" parent="1">
          <mxGeometry x="160" y="1030" width="30" height="30" as="geometry" />
        </mxCell>
        <mxCell id="hOWvKVxqhoTVJDO-nxhJ-91" value="citizenship_of" style="rhombus;whiteSpace=wrap;html=1;fillColor=#6d8764;fontColor=#ffffff;strokeColor=#3A5431;" vertex="1" parent="1">
          <mxGeometry x="-1030" y="620" width="100" height="80" as="geometry" />
        </mxCell>
        <mxCell id="hOWvKVxqhoTVJDO-nxhJ-94" style="edgeStyle=orthogonalEdgeStyle;rounded=0;orthogonalLoop=1;jettySize=auto;html=1;entryX=0.5;entryY=0;entryDx=0;entryDy=0;" edge="1" parent="1" source="hOWvKVxqhoTVJDO-nxhJ-93" target="hOWvKVxqhoTVJDO-nxhJ-91">
          <mxGeometry relative="1" as="geometry" />
        </mxCell>
        <mxCell id="hOWvKVxqhoTVJDO-nxhJ-93" value="Country" style="rounded=0;whiteSpace=wrap;html=1;fillColor=#f8cecc;strokeColor=#b85450;" vertex="1" parent="1">
          <mxGeometry x="-970" y="500" width="120" height="60" as="geometry" />
        </mxCell>
        <mxCell id="hOWvKVxqhoTVJDO-nxhJ-96" style="edgeStyle=orthogonalEdgeStyle;rounded=0;orthogonalLoop=1;jettySize=auto;html=1;" edge="1" parent="1" source="hOWvKVxqhoTVJDO-nxhJ-95" target="hOWvKVxqhoTVJDO-nxhJ-93">
          <mxGeometry relative="1" as="geometry" />
        </mxCell>
        <mxCell id="hOWvKVxqhoTVJDO-nxhJ-95" value="&lt;u&gt;name&lt;/u&gt;" style="ellipse;whiteSpace=wrap;html=1;fillColor=#a0522d;fontColor=#ffffff;strokeColor=#6D1F00;" vertex="1" parent="1">
          <mxGeometry x="-890" y="380" width="100" height="60" as="geometry" />
        </mxCell>
        <mxCell id="hOWvKVxqhoTVJDO-nxhJ-97" value="N" style="text;html=1;align=center;verticalAlign=middle;resizable=0;points=[];autosize=1;strokeColor=none;fillColor=none;" vertex="1" parent="1">
          <mxGeometry x="-845" y="788" width="30" height="30" as="geometry" />
        </mxCell>
        <mxCell id="hOWvKVxqhoTVJDO-nxhJ-98" value="N" style="text;html=1;align=center;verticalAlign=middle;resizable=0;points=[];autosize=1;strokeColor=none;fillColor=none;" vertex="1" parent="1">
          <mxGeometry x="-905" y="558" width="30" height="30" as="geometry" />
        </mxCell>
        <mxCell id="hOWvKVxqhoTVJDO-nxhJ-145" style="edgeStyle=orthogonalEdgeStyle;rounded=0;orthogonalLoop=1;jettySize=auto;html=1;entryX=1;entryY=0.5;entryDx=0;entryDy=0;" edge="1" parent="1" source="hOWvKVxqhoTVJDO-nxhJ-147" target="hOWvKVxqhoTVJDO-nxhJ-170">
          <mxGeometry relative="1" as="geometry" />
        </mxCell>
        <mxCell id="hOWvKVxqhoTVJDO-nxhJ-146" style="edgeStyle=orthogonalEdgeStyle;rounded=0;orthogonalLoop=1;jettySize=auto;html=1;" edge="1" parent="1" source="hOWvKVxqhoTVJDO-nxhJ-147" target="hOWvKVxqhoTVJDO-nxhJ-175">
          <mxGeometry relative="1" as="geometry" />
        </mxCell>
        <mxCell id="hOWvKVxqhoTVJDO-nxhJ-147" value="Club" style="rounded=0;whiteSpace=wrap;html=1;fillColor=#f8cecc;strokeColor=#b85450;" vertex="1" parent="1">
          <mxGeometry x="1180" y="190" width="120" height="60" as="geometry" />
        </mxCell>
        <mxCell id="hOWvKVxqhoTVJDO-nxhJ-148" style="edgeStyle=orthogonalEdgeStyle;rounded=0;orthogonalLoop=1;jettySize=auto;html=1;entryX=0.5;entryY=0;entryDx=0;entryDy=0;" edge="1" parent="1" source="hOWvKVxqhoTVJDO-nxhJ-149" target="hOWvKVxqhoTVJDO-nxhJ-147">
          <mxGeometry relative="1" as="geometry" />
        </mxCell>
        <mxCell id="hOWvKVxqhoTVJDO-nxhJ-149" value="&lt;u&gt;name&lt;/u&gt;" style="ellipse;whiteSpace=wrap;html=1;fillColor=#a0522d;fontColor=#ffffff;strokeColor=#6D1F00;" vertex="1" parent="1">
          <mxGeometry x="1390" y="40" width="90" height="50" as="geometry" />
        </mxCell>
        <mxCell id="hOWvKVxqhoTVJDO-nxhJ-150" style="edgeStyle=orthogonalEdgeStyle;rounded=0;orthogonalLoop=1;jettySize=auto;html=1;entryX=1;entryY=0.5;entryDx=0;entryDy=0;" edge="1" parent="1" source="hOWvKVxqhoTVJDO-nxhJ-151" target="hOWvKVxqhoTVJDO-nxhJ-153">
          <mxGeometry relative="1" as="geometry" />
        </mxCell>
        <mxCell id="hOWvKVxqhoTVJDO-nxhJ-151" value="City" style="rounded=0;whiteSpace=wrap;html=1;fillColor=#f8cecc;strokeColor=#b85450;" vertex="1" parent="1">
          <mxGeometry x="1700" y="290" width="120" height="60" as="geometry" />
        </mxCell>
        <mxCell id="hOWvKVxqhoTVJDO-nxhJ-152" style="edgeStyle=orthogonalEdgeStyle;rounded=0;orthogonalLoop=1;jettySize=auto;html=1;" edge="1" parent="1" source="hOWvKVxqhoTVJDO-nxhJ-153" target="hOWvKVxqhoTVJDO-nxhJ-147">
          <mxGeometry relative="1" as="geometry" />
        </mxCell>
        <mxCell id="hOWvKVxqhoTVJDO-nxhJ-153" value="Based" style="rhombus;whiteSpace=wrap;html=1;fillColor=#6d8764;fontColor=#ffffff;strokeColor=#3A5431;" vertex="1" parent="1">
          <mxGeometry x="1450" y="220" width="110" height="80" as="geometry" />
        </mxCell>
        <mxCell id="hOWvKVxqhoTVJDO-nxhJ-154" style="edgeStyle=orthogonalEdgeStyle;rounded=0;orthogonalLoop=1;jettySize=auto;html=1;" edge="1" parent="1" source="hOWvKVxqhoTVJDO-nxhJ-155" target="hOWvKVxqhoTVJDO-nxhJ-151">
          <mxGeometry relative="1" as="geometry" />
        </mxCell>
        <mxCell id="hOWvKVxqhoTVJDO-nxhJ-155" value="&lt;u&gt;name&lt;/u&gt;" style="ellipse;whiteSpace=wrap;html=1;fillColor=#a0522d;fontColor=#ffffff;strokeColor=#6D1F00;" vertex="1" parent="1">
          <mxGeometry x="1800" y="210" width="80" height="40" as="geometry" />
        </mxCell>
        <mxCell id="hOWvKVxqhoTVJDO-nxhJ-156" style="edgeStyle=orthogonalEdgeStyle;rounded=0;orthogonalLoop=1;jettySize=auto;html=1;entryX=0.25;entryY=0;entryDx=0;entryDy=0;" edge="1" parent="1" source="hOWvKVxqhoTVJDO-nxhJ-157" target="hOWvKVxqhoTVJDO-nxhJ-151">
          <mxGeometry relative="1" as="geometry" />
        </mxCell>
        <mxCell id="hOWvKVxqhoTVJDO-nxhJ-157" value="population" style="ellipse;whiteSpace=wrap;html=1;fillColor=#a0522d;fontColor=#ffffff;strokeColor=#6D1F00;" vertex="1" parent="1">
          <mxGeometry x="1730" y="60" width="90" height="50" as="geometry" />
        </mxCell>
        <mxCell id="hOWvKVxqhoTVJDO-nxhJ-158" value="result" style="ellipse;whiteSpace=wrap;html=1;fillColor=#a0522d;fontColor=#ffffff;strokeColor=#6D1F00;" vertex="1" parent="1">
          <mxGeometry x="1426" y="650" width="90" height="60" as="geometry" />
        </mxCell>
        <mxCell id="hOWvKVxqhoTVJDO-nxhJ-159" value="date" style="ellipse;whiteSpace=wrap;html=1;fillColor=#a0522d;fontColor=#ffffff;strokeColor=#6D1F00;" vertex="1" parent="1">
          <mxGeometry x="1244" y="620" width="90" height="60" as="geometry" />
        </mxCell>
        <mxCell id="hOWvKVxqhoTVJDO-nxhJ-160" style="edgeStyle=orthogonalEdgeStyle;rounded=0;orthogonalLoop=1;jettySize=auto;html=1;" edge="1" parent="1" source="hOWvKVxqhoTVJDO-nxhJ-162" target="hOWvKVxqhoTVJDO-nxhJ-170">
          <mxGeometry relative="1" as="geometry" />
        </mxCell>
        <mxCell id="hOWvKVxqhoTVJDO-nxhJ-161" style="edgeStyle=orthogonalEdgeStyle;rounded=0;orthogonalLoop=1;jettySize=auto;html=1;entryX=0.5;entryY=1;entryDx=0;entryDy=0;" edge="1" parent="1" source="hOWvKVxqhoTVJDO-nxhJ-162" target="hOWvKVxqhoTVJDO-nxhJ-184">
          <mxGeometry relative="1" as="geometry">
            <Array as="points">
              <mxPoint x="740" y="100" />
              <mxPoint x="620" y="100" />
            </Array>
          </mxGeometry>
        </mxCell>
        <mxCell id="hOWvKVxqhoTVJDO-nxhJ-162" value="player" style="rounded=0;whiteSpace=wrap;html=1;fillColor=#f8cecc;strokeColor=#b85450;" vertex="1" parent="1">
          <mxGeometry x="680" y="155" width="120" height="60" as="geometry" />
        </mxCell>
        <mxCell id="hOWvKVxqhoTVJDO-nxhJ-163" style="edgeStyle=orthogonalEdgeStyle;rounded=0;orthogonalLoop=1;jettySize=auto;html=1;" edge="1" parent="1" source="hOWvKVxqhoTVJDO-nxhJ-164" target="hOWvKVxqhoTVJDO-nxhJ-162">
          <mxGeometry relative="1" as="geometry" />
        </mxCell>
        <mxCell id="hOWvKVxqhoTVJDO-nxhJ-164" value="&lt;u&gt;name&lt;/u&gt;" style="ellipse;whiteSpace=wrap;html=1;fillColor=#a0522d;fontColor=#ffffff;strokeColor=#6D1F00;" vertex="1" parent="1">
          <mxGeometry x="370" y="145" width="89" height="60" as="geometry" />
        </mxCell>
        <mxCell id="hOWvKVxqhoTVJDO-nxhJ-165" style="edgeStyle=orthogonalEdgeStyle;rounded=0;orthogonalLoop=1;jettySize=auto;html=1;entryX=0.75;entryY=1;entryDx=0;entryDy=0;" edge="1" parent="1" source="hOWvKVxqhoTVJDO-nxhJ-166" target="hOWvKVxqhoTVJDO-nxhJ-162">
          <mxGeometry relative="1" as="geometry" />
        </mxCell>
        <mxCell id="hOWvKVxqhoTVJDO-nxhJ-166" value="birth_date" style="ellipse;whiteSpace=wrap;html=1;fillColor=#a0522d;fontColor=#ffffff;strokeColor=#6D1F00;" vertex="1" parent="1">
          <mxGeometry x="400" y="315" width="99" height="60" as="geometry" />
        </mxCell>
        <mxCell id="hOWvKVxqhoTVJDO-nxhJ-167" style="edgeStyle=orthogonalEdgeStyle;rounded=0;orthogonalLoop=1;jettySize=auto;html=1;entryX=0.5;entryY=1;entryDx=0;entryDy=0;" edge="1" parent="1" source="hOWvKVxqhoTVJDO-nxhJ-168" target="hOWvKVxqhoTVJDO-nxhJ-162">
          <mxGeometry relative="1" as="geometry" />
        </mxCell>
        <mxCell id="hOWvKVxqhoTVJDO-nxhJ-168" value="birth_country" style="ellipse;whiteSpace=wrap;html=1;fillColor=#a0522d;fontColor=#ffffff;strokeColor=#6D1F00;" vertex="1" parent="1">
          <mxGeometry x="397" y="235" width="100" height="60" as="geometry" />
        </mxCell>
        <mxCell id="hOWvKVxqhoTVJDO-nxhJ-169" style="edgeStyle=orthogonalEdgeStyle;rounded=0;orthogonalLoop=1;jettySize=auto;html=1;entryX=0.5;entryY=1;entryDx=0;entryDy=0;" edge="1" parent="1" source="hOWvKVxqhoTVJDO-nxhJ-170" target="hOWvKVxqhoTVJDO-nxhJ-171">
          <mxGeometry relative="1" as="geometry" />
        </mxCell>
        <mxCell id="hOWvKVxqhoTVJDO-nxhJ-170" value="plays_in" style="rhombus;whiteSpace=wrap;html=1;fillColor=#6d8764;fontColor=#ffffff;strokeColor=#3A5431;" vertex="1" parent="1">
          <mxGeometry x="970" y="200" width="110" height="80" as="geometry" />
        </mxCell>
        <mxCell id="hOWvKVxqhoTVJDO-nxhJ-171" value="start_date" style="ellipse;whiteSpace=wrap;html=1;fillColor=#a0522d;fontColor=#ffffff;strokeColor=#6D1F00;" vertex="1" parent="1">
          <mxGeometry x="920" y="80" width="100" height="60" as="geometry" />
        </mxCell>
        <mxCell id="hOWvKVxqhoTVJDO-nxhJ-172" style="edgeStyle=orthogonalEdgeStyle;rounded=0;orthogonalLoop=1;jettySize=auto;html=1;" edge="1" parent="1" source="hOWvKVxqhoTVJDO-nxhJ-175" target="hOWvKVxqhoTVJDO-nxhJ-159">
          <mxGeometry relative="1" as="geometry" />
        </mxCell>
        <mxCell id="hOWvKVxqhoTVJDO-nxhJ-173" style="edgeStyle=orthogonalEdgeStyle;rounded=0;orthogonalLoop=1;jettySize=auto;html=1;entryX=0;entryY=0.5;entryDx=0;entryDy=0;" edge="1" parent="1" source="hOWvKVxqhoTVJDO-nxhJ-175" target="hOWvKVxqhoTVJDO-nxhJ-158">
          <mxGeometry relative="1" as="geometry" />
        </mxCell>
        <mxCell id="hOWvKVxqhoTVJDO-nxhJ-174" style="edgeStyle=orthogonalEdgeStyle;rounded=0;orthogonalLoop=1;jettySize=auto;html=1;entryX=0.5;entryY=1;entryDx=0;entryDy=0;" edge="1" parent="1" source="hOWvKVxqhoTVJDO-nxhJ-175" target="hOWvKVxqhoTVJDO-nxhJ-151">
          <mxGeometry relative="1" as="geometry" />
        </mxCell>
        <mxCell id="hOWvKVxqhoTVJDO-nxhJ-175" value="was_in" style="rhombus;whiteSpace=wrap;html=1;fillColor=#6d8764;fontColor=#ffffff;strokeColor=#3A5431;" vertex="1" parent="1">
          <mxGeometry x="1300" y="420" width="126" height="65" as="geometry" />
        </mxCell>
        <mxCell id="hOWvKVxqhoTVJDO-nxhJ-176" style="edgeStyle=orthogonalEdgeStyle;rounded=0;orthogonalLoop=1;jettySize=auto;html=1;entryX=0.071;entryY=0.984;entryDx=0;entryDy=0;entryPerimeter=0;" edge="1" parent="1" source="hOWvKVxqhoTVJDO-nxhJ-175" target="hOWvKVxqhoTVJDO-nxhJ-147">
          <mxGeometry relative="1" as="geometry">
            <Array as="points">
              <mxPoint x="1188" y="453" />
            </Array>
          </mxGeometry>
        </mxCell>
        <mxCell id="hOWvKVxqhoTVJDO-nxhJ-177" value="1" style="text;html=1;align=center;verticalAlign=middle;resizable=0;points=[];autosize=1;strokeColor=none;fillColor=none;" vertex="1" parent="1">
          <mxGeometry x="1244" y="265" width="30" height="30" as="geometry" />
        </mxCell>
        <mxCell id="hOWvKVxqhoTVJDO-nxhJ-178" value="1" style="text;html=1;align=center;verticalAlign=middle;resizable=0;points=[];autosize=1;strokeColor=none;fillColor=none;" vertex="1" parent="1">
          <mxGeometry x="1160" y="265" width="30" height="30" as="geometry" />
        </mxCell>
        <mxCell id="hOWvKVxqhoTVJDO-nxhJ-179" value="N" style="text;html=1;align=center;verticalAlign=middle;resizable=0;points=[];autosize=1;strokeColor=none;fillColor=none;" vertex="1" parent="1">
          <mxGeometry x="795" y="155" width="30" height="30" as="geometry" />
        </mxCell>
        <mxCell id="hOWvKVxqhoTVJDO-nxhJ-180" value="1" style="text;html=1;align=center;verticalAlign=middle;resizable=0;points=[];autosize=1;strokeColor=none;fillColor=none;" vertex="1" parent="1">
          <mxGeometry x="1145" y="188" width="30" height="30" as="geometry" />
        </mxCell>
        <mxCell id="hOWvKVxqhoTVJDO-nxhJ-181" value="(1,*)" style="text;html=1;align=center;verticalAlign=middle;resizable=0;points=[];autosize=1;strokeColor=none;fillColor=none;" vertex="1" parent="1">
          <mxGeometry x="1305" y="188" width="50" height="30" as="geometry" />
        </mxCell>
        <mxCell id="hOWvKVxqhoTVJDO-nxhJ-182" value="1" style="text;html=1;align=center;verticalAlign=middle;resizable=0;points=[];autosize=1;strokeColor=none;fillColor=none;" vertex="1" parent="1">
          <mxGeometry x="1665" y="288" width="30" height="30" as="geometry" />
        </mxCell>
        <mxCell id="hOWvKVxqhoTVJDO-nxhJ-183" value="1" style="text;html=1;align=center;verticalAlign=middle;resizable=0;points=[];autosize=1;strokeColor=none;fillColor=none;" vertex="1" parent="1">
          <mxGeometry x="1760" y="360" width="30" height="30" as="geometry" />
        </mxCell>
        <mxCell id="hOWvKVxqhoTVJDO-nxhJ-184" value="citizenship_of" style="rhombus;whiteSpace=wrap;html=1;fillColor=#6d8764;fontColor=#ffffff;strokeColor=#3A5431;" vertex="1" parent="1">
          <mxGeometry x="570" y="-50" width="100" height="80" as="geometry" />
        </mxCell>
        <mxCell id="hOWvKVxqhoTVJDO-nxhJ-185" style="edgeStyle=orthogonalEdgeStyle;rounded=0;orthogonalLoop=1;jettySize=auto;html=1;entryX=0.5;entryY=0;entryDx=0;entryDy=0;" edge="1" parent="1" source="hOWvKVxqhoTVJDO-nxhJ-186" target="hOWvKVxqhoTVJDO-nxhJ-184">
          <mxGeometry relative="1" as="geometry" />
        </mxCell>
        <mxCell id="hOWvKVxqhoTVJDO-nxhJ-186" value="Country" style="rounded=0;whiteSpace=wrap;html=1;fillColor=#f8cecc;strokeColor=#b85450;" vertex="1" parent="1">
          <mxGeometry x="630" y="-170" width="120" height="60" as="geometry" />
        </mxCell>
        <mxCell id="hOWvKVxqhoTVJDO-nxhJ-187" style="edgeStyle=orthogonalEdgeStyle;rounded=0;orthogonalLoop=1;jettySize=auto;html=1;" edge="1" parent="1" source="hOWvKVxqhoTVJDO-nxhJ-188" target="hOWvKVxqhoTVJDO-nxhJ-186">
          <mxGeometry relative="1" as="geometry" />
        </mxCell>
        <mxCell id="hOWvKVxqhoTVJDO-nxhJ-188" value="&lt;u&gt;name&lt;/u&gt;" style="ellipse;whiteSpace=wrap;html=1;fillColor=#a0522d;fontColor=#ffffff;strokeColor=#6D1F00;" vertex="1" parent="1">
          <mxGeometry x="710" y="-290" width="100" height="60" as="geometry" />
        </mxCell>
        <mxCell id="hOWvKVxqhoTVJDO-nxhJ-189" value="(0,2)" style="text;html=1;align=center;verticalAlign=middle;resizable=0;points=[];autosize=1;strokeColor=none;fillColor=none;" vertex="1" parent="1">
          <mxGeometry x="745" y="118" width="50" height="30" as="geometry" />
        </mxCell>
        <mxCell id="hOWvKVxqhoTVJDO-nxhJ-190" value="(0,*)" style="text;html=1;align=center;verticalAlign=middle;resizable=0;points=[];autosize=1;strokeColor=none;fillColor=none;" vertex="1" parent="1">
          <mxGeometry x="685" y="-112" width="50" height="30" as="geometry" />
        </mxCell>
      </root>
    </mxGraphModel>
  </diagram>
  <diagram id="FRuE-hqP1cDdkgqMZlEM" name="Page-2">
    <mxGraphModel grid="1" page="1" gridSize="10" guides="1" tooltips="1" connect="1" arrows="1" fold="1" pageScale="1" pageWidth="827" pageHeight="1169" math="0" shadow="0">
      <root>
        <mxCell id="0" />
        <mxCell id="1" parent="0" />
      </root>
    </mxGraphModel>
  </diagram>
</mxfile>
